<svg width="144" height="144" viewBox="0 0 144 144" fill="none" xmlns="http://www.w3.org/2000/svg">
<rect width="144" height="144" fill="#1E1E1E"/>
<g id="Frame 655">
<rect id="Rectangle 404" width="144" height="144" fill="white"/>
<g id="ES">
<path d="M14 114.016V31.416H65.33V42.685H25.918V65.695H50.993V76.964H25.918V102.629H67.867V114.016H14Z" fill="#1E1E1E"/>
<path d="M103.595 115.432C98.6788 115.432 94.2144 114.606 90.2024 112.954C86.2298 111.263 82.8274 108.942 79.9954 105.992C77.2028 103.042 75.1574 99.6397 73.8594 95.785L84.9514 91.714C86.6428 95.4113 89.1208 98.4203 92.3854 100.741C95.6894 103.022 99.5244 104.163 103.89 104.163C108.571 104.163 112.308 103.081 115.1 100.918C117.932 98.7547 119.348 95.5883 119.348 91.419C119.348 88.5477 118.503 86.1287 116.811 84.162C115.159 82.1953 112.957 80.5433 110.203 79.206C107.489 77.8293 104.539 76.5707 101.353 75.43C98.4428 74.368 95.5124 73.2077 92.5624 71.949C89.6124 70.651 86.9378 69.0973 84.5384 67.288C82.1391 65.4787 80.1921 63.2563 78.6974 60.621C77.2421 57.9857 76.5144 54.7997 76.5144 51.063C76.5144 47.2477 77.5371 43.747 79.5824 40.561C81.6671 37.375 84.6564 34.8183 88.5504 32.891C92.4444 30.9637 97.1448 30 102.651 30C107.175 30 111.147 30.708 114.569 32.124C118.031 33.5007 120.882 35.4083 123.124 37.847C125.366 40.2463 126.92 42.98 127.785 46.048L116.929 49.647C115.907 47.287 114.137 45.281 111.619 43.629C109.141 41.977 105.896 41.151 101.884 41.151C97.7938 41.151 94.5684 42.036 92.2084 43.806C89.8878 45.576 88.7274 48.0147 88.7274 51.122C88.7274 53.4033 89.5141 55.3307 91.0874 56.904C92.6608 58.438 94.7258 59.795 97.2824 60.975C99.8784 62.155 102.691 63.2957 105.719 64.397C108.748 65.4983 111.777 66.757 114.805 68.173C117.834 69.5497 120.607 71.241 123.124 73.247C125.681 75.253 127.726 77.731 129.26 80.681C130.794 83.5917 131.561 87.112 131.561 91.242C131.561 96.3947 130.322 100.78 127.844 104.399C125.406 107.978 122.082 110.712 117.873 112.6C113.665 114.488 108.905 115.432 103.595 115.432Z" fill="#1E1E1E"/>
</g>
</g>
</svg>
